<?xml version="1.0" encoding="UTF-8"?>
<svg id="Layer_1" data-name="Layer 1" xmlns="http://www.w3.org/2000/svg" viewBox="0 0 50 50">
  <path d="M26.77,49.41h-3.54s0-4.54,0-4.54c-7.05-.59-13.06-4.26-13.29-11.75h10.1c.14,1.98,1.23,3.7,3.19,4.25v-8.72c-4.76-1.4-9.34-2.13-12.15-6.6-.9-1.65-1.19-3.42-1.21-5.3-.02-2.81.9-5.42,2.91-7.38,2.83-2.75,6.46-3.9,10.45-4.21V.69s3.55,0,3.55,0v4.49c7.09.55,12.43,4.04,12.96,11.52h-10.16c-.14-1.81-1.13-3.36-2.8-3.84v8.55c2.15.6,4.13,1.21,6.2,1.92,2.54.87,4.68,2.46,6.12,4.72.76,1.36,1.06,2.79,1.18,4.34.26,3.62-1.18,7.02-4.01,9.29s-5.87,3.06-9.48,3.27v4.47ZM23.2,20.2v-7.62c-1.12.21-2.14.64-2.74,1.59-.77,1.21-.81,2.92.03,4.1.67.94,1.63,1.53,2.71,1.93ZM29.7,31.59c-.76-.98-1.86-1.49-2.94-1.85v7.8c1.46-.19,2.62-1,3.16-2.08.62-1.25.65-2.75-.22-3.87Z"/>
</svg>